<?xml version="1.0" encoding="utf-8"?>
<!-- Generator: Adobe Illustrator 27.9.0, SVG Export Plug-In . SVG Version: 6.00 Build 0)  -->
<svg version="1.1" id="Layer_1" xmlns="http://www.w3.org/2000/svg" xmlns:xlink="http://www.w3.org/1999/xlink" x="0px" y="0px"
	 viewBox="0 0 1143.4 401.6" style="enable-background:new 0 0 1143.4 401.6;" xml:space="preserve">
<style type="text/css">
	.st0{fill:#FFFFFF;}
	.st1{fill:#C9E5F2;}
	.st2{fill:#1D9BE5;}
	.st3{fill:#2C6AC4;}
	.st4{fill:#074577;}
	.st5{font-family:'GambadoSans';}
	.st6{font-size:14.7717px;}
</style>
<g>
	<g>
		<g>
			<path class="st0" d="M177.1,227.8L177.1,227.8h26.5l-8.4-70.4c-0.3-1.4-0.5-2.8-0.5-4.3h-17.5h0h-17.5c-0.1,1.5-0.2,2.9-0.5,4.3
				l-8.4,70.4H177.1z"/>
			<path class="st0" d="M197.1,153.2l0.5,3.8c2.3,11.3,12.3,19.8,24.3,19.8c13.3,0,24.1-10.5,24.7-23.7h-49.5
				C197.1,153.1,197.1,153.1,197.1,153.2z"/>
			<path class="st1" d="M198.7,166.4l2.4,20.1l31.1-1.5c12.2-1.6,22.4-9.7,26.6-21.4l3.8-10.5h-13.5c-0.6,14.5-12.6,26.2-27.3,26.2
				C212.1,179.2,203.5,174.1,198.7,166.4z"/>
			<path class="st2" d="M108.7,256.6c-0.2,0.2-0.5,0.3-0.8,0.3H81.2l-6.1,35.6h42.7l31.2-24.8c0.2-0.2,0.5-0.3,0.8-0.3h27.1
				c0.1,0,0.1,0,0.2,0c0.1,0,0.1,0,0.2,0h27.1c0.3,0,0.6,0.1,0.8,0.3l31.2,24.8H279l-6.1-35.6h-26.7c-0.3,0-0.6-0.1-0.8-0.3
				l-30.3-26.2H205h-27.9h0h-27.9h-10.1L108.7,256.6z"/>
			<polygon class="st2" points="194.5,125.9 196.9,141.3 263,134.7 260.1,116.4 			"/>
			<polygon class="st2" points="91.2,134.7 157.3,141.3 159.6,125.9 94,116.4 			"/>
			<path class="st0" d="M206.5,292.6h26.1l-28.6-22.7h-26.7c-0.1,0-0.1,0-0.2,0c-0.1,0-0.1,0-0.2,0h-26.7l-28.6,22.7h26.1l-5.1-6.4
				c-0.4-0.5-0.3-1.3,0.2-1.8c0.5-0.4,1.3-0.3,1.8,0.2l6.3,7.9h25.7h0.9h25.7l6.3-7.9c0.4-0.5,1.2-0.6,1.8-0.2
				c0.5,0.4,0.6,1.2,0.2,1.8L206.5,292.6z"/>
			<path class="st3" d="M103.3,5.8L81.7,33.4L66,76.7c8-1.6,16.6-3.1,25.7-4.3L103.3,5.8z"/>
			<path class="st2" d="M176.6,67C176.6,67,176.6,67,176.6,67l0.3,0c0,0,0.1,0,0.1,0s0.1,0,0.1,0h0.3c0,0,0,0,0,0
				c30,0,57.9,1.8,82.3,5.1L247.8,2.5h-70.7h0h-70.7L94.3,72C118.7,68.8,146.7,67,176.6,67z"/>
			<path class="st0" d="M273.1,107.9h-74.7l-20.6,12.5c-0.2,0.2-0.5,0.2-0.7,0.2c0,0,0,0,0,0c0,0,0,0,0,0c-0.3,0-0.5-0.1-0.7-0.2
				l-20.6-12.5H81L58.1,228.7l-13.5,63.9h27.9l6.4-37.2c0.1-0.6,0.6-1,1.2-1h27.3l30-25.9l3.3-17.8c0-0.3,0.2-0.5,0.4-0.7l10.2-9.9
				c0,0,0,0,0,0l1.3-11l-31.2-1.5c-13.3-1.7-24.3-10.5-28.8-23l-3.9-11.4h-8.7c-0.7,0-1.3-0.6-1.3-1.3s0.6-1.3,1.3-1.3h96.9h0H274
				c0.7,0,1.3,0.6,1.3,1.3s-0.6,1.3-1.3,1.3h-8.7l-4.1,11.4c-4.5,12.5-15.5,21.3-28.7,23l-31.1,1.5l1.3,11c0,0,0,0,0,0l10.2,9.9
				c0.2,0.2,0.3,0.4,0.4,0.7l3.3,17.8l30,25.9H274c0.6,0,1.1,0.4,1.2,1l6.4,37.2h27.9L273.1,107.9z M159.6,142.9
				c-0.1,0.6-0.6,1.1-1.2,1.1c0,0-0.1,0-0.1,0l-68.6-6.9c-0.3,0-0.7-0.2-0.9-0.5c-0.2-0.3-0.3-0.6-0.2-1l3.2-20.8
				c0.1-0.7,0.7-1.2,1.4-1.1l68.1,9.8c0.3,0,0.6,0.2,0.8,0.5s0.3,0.6,0.2,0.9L159.6,142.9z M265.4,136.6c-0.2,0.3-0.5,0.4-0.9,0.5
				l-68.6,6.9c0,0-0.1,0-0.1,0c-0.6,0-1.1-0.4-1.2-1.1l-2.7-17.8c-0.1-0.3,0-0.7,0.2-0.9c0.2-0.3,0.5-0.4,0.8-0.5l68.1-9.8
				c0.7-0.1,1.3,0.4,1.4,1.1l3.2,20.8C265.7,136,265.6,136.3,265.4,136.6z"/>
			<path class="st0" d="M132.3,176.7c12,0,22-8.5,24.3-19.8l0.5-3.8c0,0,0-0.1,0-0.1h-49.5C108.1,166.2,119,176.7,132.3,176.7z"/>
			<path class="st3" d="M288.1,76.7l-15.7-43.3L250.8,5.8l11.6,66.6C271.5,73.6,280.1,75.1,288.1,76.7z"/>
			<path class="st3" d="M60.9,106.6c0.1-0.6,0.7-1,1.3-0.9c21.9-14,65.7-22.8,114.5-22.8c0,0,0,0,0,0h0.2c0,0,0.1,0,0.1,0
				c0,0,0.1,0,0.1,0h0.2c0,0,0,0,0,0c48.9,0.1,92.7,8.8,114.6,22.9c0.6,0,1.1,0.4,1.2,0.9l8,32.7l0.7-0.2
				c30.2-7.7,47.6-18,47.6-28.4c0-10.6-18.2-21.2-50-28.9c-32.7-8-76.2-12.5-122.5-12.5c-46.3,0-89.8,4.4-122.5,12.5
				c-31.8,7.8-50,18.3-50,28.9c0,10.3,17.4,20.6,47.6,28.4l0.7,0.2L60.9,106.6z"/>
			<polygon class="st3" points="307.7,295.1 177.5,295.1 176.6,295.1 46.4,295.1 56.4,303.8 297.8,303.8 			"/>
			<path class="st1" d="M91.5,153.1l3.6,10.5c4.2,11.6,14.4,19.8,26.7,21.4l31.3,1.5l2.4-20.1c-4.8,7.7-13.4,12.8-23.2,12.8
				c-14.7,0-26.7-11.6-27.3-26.2H91.5z"/>
			<polygon class="st3" points="296.3,305.1 57.8,305.1 71.3,316.8 282.9,316.8 			"/>
			<polygon class="st3" points="176.6,329.8 177.5,329.8 268,329.8 281.4,318.1 72.7,318.1 86.1,329.8 			"/>
			<path class="st0" d="M49,155.4c-2.9-0.7-5.9-1.1-9-1.1c-20.7,0-37.5,16.8-37.5,37.5c0,17.3,12,32.4,28.6,36.4L49,155.4z"/>
			<path class="st3" d="M75.4,381.1c-0.2,0-0.4-0.1-0.5-0.3l-52.2-77.9l-7.2,2.7l57.1,91.3L75.4,381.1L75.4,381.1z"/>
			<path class="st2" d="M67.4,105.5c-1.5,0.8-2.9,1.7-4.2,2.5c0,0,0,0,0,0L33.4,229.7c0,0.1,0,0.2,0,0.4c0,0.2-0.1,0.3-0.2,0.4
				L15.4,303l6.8-2.6L67.4,105.5z"/>
			<polygon class="st2" points="78,381.1 74.8,399.1 176.9,399.1 177.2,399.1 279.4,399.1 276.2,381.1 			"/>
			<polygon class="st3" points="329.4,302.1 319.6,298.4 273.7,352.7 278.3,378.6 			"/>
			<path class="st2" d="M284.2,104.2c-1.6-0.8-3.2-1.6-5-2.3l40.2,193.8l10,3.8L284.2,104.2z"/>
			<path class="st2" d="M271.3,354C271.3,354,271.3,354,271.3,354l-188.5,0l-4.6,25.8h197.7L271.3,354z"/>
			<polygon class="st3" points="278.6,380.4 281.5,396.9 338.7,305.6 330.7,302.6 			"/>
			<path class="st0" d="M314.4,154.3c-3.1,0-6.2,0.4-9.2,1.1l17.9,72.8c16.8-4,28.8-19.1,28.8-36.5
				C351.9,171.1,335,154.3,314.4,154.3z"/>
			<path class="st2" d="M285.7,105l45.2,195l7.9,3L291,108.1C289.3,107,287.6,106,285.7,105z"/>
			<polygon class="st3" points="318.3,297.9 311.3,295.3 269.9,331.5 273.4,351.1 			"/>
			<polygon class="st3" points="35.1,298.2 80.6,352 84.3,331.5 42.8,295.3 			"/>
			<path class="st2" d="M277.8,101.3c-3.5-1.5-7.4-2.9-11.5-4.1l8.7,8.5c0,0,0,0,0,0c0,0,0,0,0,0c0.1,0.1,0.2,0.2,0.2,0.3
				c0,0,0,0.1,0,0.1c0,0.1,0,0.1,0.1,0.2l36.7,186.6l5.9,2.2L277.8,101.3C277.8,101.4,277.8,101.3,277.8,101.3z"/>
			<polygon class="st2" points="267.5,332.3 177.5,332.3 176.6,332.3 86.7,332.3 83,352.7 271.1,352.7 			"/>
			<polygon class="st3" points="80.3,353.7 33.8,298.7 23.9,302.4 75.7,379.7 			"/>
			<path class="st2" d="M23.6,299.9l10-3.8l40.2-193.7c-1.7,0.8-3.4,1.6-5,2.4L23.6,299.9z"/>
			<path class="st2" d="M35,295.6l7-2.6l13.7-64.7l23.1-121.9c0-0.1,0-0.1,0.1-0.2c0,0,0-0.1,0-0.1c0.1-0.1,0.1-0.2,0.2-0.3
				c0,0,0,0,0,0c0,0,0,0,0,0l8.7-8.5c-4.5,1.4-8.7,2.9-12.5,4.6L35,295.6z"/>
			<path class="st0" d="M261.2,95.6c-22.9-6.5-52.8-10.2-84.2-10.3c-31.4,0-61.3,3.8-84.2,10.3c0,0-0.1,0.1-0.1,0.1l-9.8,9.6h73
				c0.2,0,0.5,0.1,0.7,0.2l20.4,12.3l20.4-12.3c0.2-0.1,0.4-0.2,0.7-0.2h73l-9.8-9.6C261.3,95.7,261.3,95.7,261.2,95.6z"/>
			<path class="st1" d="M25.4,155.8l5,74.1L49,155.4C49,155.4,36.4,150.8,25.4,155.8z"/>
			<path class="st1" d="M328.4,155.8l-5,74.1l-18.5-74.5C304.8,155.4,317.4,150.8,328.4,155.8z"/>
			<polygon class="st1" points="107.8,158.6 156.2,158.6 247.5,158.6 247.7,151.9 105.9,151.9 			"/>
			<polygon class="st1" points="81,107.9 79.9,152.4 72.3,152.4 			"/>
			<polygon class="st1" points="273.1,107.9 275.3,151.8 282.4,151.8 			"/>
			<path class="st1" d="M81.5,105.5c0,0,88.7-26.3,191.1,0l-11.7-11.9l-34.3-6.2l-35-2.5l-23.3-0.2l-26.3,0.9L103,92l-12.3,3.2
				L81.5,105.5z"/>
			<polygon class="st1" points="119.8,292.9 149.3,292.9 141.2,282 151,273.6 170.7,273.6 177.2,278.4 177.2,269.1 149.4,268.9 			
				"/>
			<polygon class="st1" points="234.7,292.9 205.2,292.9 213.2,282 203.4,273.6 183.7,273.6 177.2,278.4 177.2,269.1 205,268.9 			
				"/>
			<polygon class="st1" points="139.8,188.7 134.7,205.7 115.5,220.5 107.5,254.3 139.1,230.3 143.2,211.5 152.6,201.5 152.7,189 
							"/>
			<polygon class="st1" points="214.3,188.7 219.4,205.7 238.6,220.5 246.6,254.3 215,230.3 210.9,211.5 201.5,201.5 201.4,189 			
				"/>
			<polygon class="st3" points="214,227.8 210.9,211.5 203.2,203.9 206.1,227.8 			"/>
			<polygon class="st3" points="140.1,227.8 148.1,227.8 150.9,203.9 143.2,211.5 			"/>
			<polygon class="st1" points="293.4,206.1 275.2,255.4 280.2,293.9 309.5,292.6 			"/>
			<polygon class="st1" points="61.3,206.1 79.5,255.4 74.6,293.9 43.7,292.6 			"/>
		</g>
		<g>
			<path class="st4" d="M161.3,123.6l-68.1-9.8c-0.7-0.1-1.3,0.4-1.4,1.1l-3.2,20.8c-0.1,0.3,0,0.7,0.2,1c0.2,0.3,0.5,0.4,0.9,0.5
				l68.6,6.9c0,0,0.1,0,0.1,0c0.6,0,1.1-0.4,1.2-1.1l2.7-17.8c0.1-0.3,0-0.7-0.2-0.9S161.6,123.6,161.3,123.6z M157.3,141.3
				l-66.1-6.6l2.8-18.3l65.6,9.5L157.3,141.3z"/>
			<path class="st4" d="M354.4,191.8c0-22.1-18-40-40-40c-3.3,0-6.6,0.4-9.8,1.2l-2.7-11.2l0.7-0.2c18.5-4.7,49.5-15,49.5-30.8
				c0-13.6-23.5-25.6-61.2-33.6l-16.1-44.8c0-0.2-0.1-0.3-0.2-0.4L249.8,0.5c0,0-0.1,0-0.1-0.1c-0.1-0.1-0.2-0.2-0.3-0.2
				c-0.1,0-0.1-0.1-0.2-0.1c-0.1,0-0.2-0.1-0.3-0.1c0,0-0.1,0-0.1,0h-71.8h0h-71.8c0,0-0.1,0-0.1,0c-0.1,0-0.2,0-0.3,0.1
				c-0.1,0-0.1,0.1-0.2,0.1c-0.1,0.1-0.2,0.1-0.2,0.2c0,0-0.1,0-0.1,0.1L79.6,32c-0.1,0.1-0.2,0.3-0.2,0.4L63.2,77.3
				c-37.7,8-61.2,20-61.2,33.6c0,15.8,31,26.1,49.5,30.8l0.7,0.2L49.6,153c-3.1-0.8-6.3-1.2-9.6-1.2c-22.1,0-40,18-40,40
				c0,18.4,12.8,34.5,30.5,38.9l-18.1,74c0,0,0,0.1,0,0.1c0,0.1,0,0.2,0,0.3c0,0.1,0,0.2,0,0.2c0,0,0,0.1,0,0.1
				c0,0.1,0.1,0.1,0.1,0.1c0,0,0,0.1,0,0.1L72.2,401c0,0.1,0.1,0.1,0.1,0.2c0,0,0,0,0,0c0.1,0.1,0.2,0.2,0.3,0.2c0,0,0.1,0,0.1,0
				c0.1,0.1,0.3,0.1,0.4,0.1h103.7h0.3h103.7c0.2,0,0.3,0,0.4-0.1c0,0,0.1,0,0.1,0c0.1-0.1,0.2-0.1,0.3-0.2c0,0,0,0,0,0
				c0.1-0.1,0.1-0.1,0.2-0.2l59.7-95.3c0,0,0-0.1,0-0.1c0,0,0.1-0.1,0.1-0.1c0,0,0-0.1,0-0.1c0-0.1,0-0.2,0-0.2c0-0.1,0-0.2,0-0.3
				c0,0,0-0.1,0-0.1l-18.1-73.9C341.5,226.5,354.4,210.3,354.4,191.8z M272.4,33.4l15.7,43.3c-8-1.6-16.6-3.1-25.7-4.3L250.8,5.8
				L272.4,33.4z M106.4,2.5h70.7h0h70.7L259.8,72c-24.4-3.2-52.4-5-82.3-5.1c0,0,0,0,0,0h-0.3c0,0-0.1,0-0.1,0s-0.1,0-0.1,0h-0.3
				c0,0,0,0,0,0c-30,0-57.9,1.8-82.3,5.1L106.4,2.5z M81.7,33.4l21.6-27.6L91.7,72.4C82.6,73.6,74,75.1,66,76.7L81.7,33.4z
				 M52.2,139.2c-30.3-7.7-47.6-18.1-47.6-28.4c0-10.6,18.2-21.2,50-28.9c32.7-8,76.2-12.5,122.5-12.5c46.3,0,89.8,4.4,122.5,12.5
				c31.8,7.8,50,18.3,50,28.9c0,10.3-17.4,20.6-47.6,28.4l-0.7,0.2l-8-32.7c-0.1-0.6-0.7-0.9-1.2-0.9
				c-21.9-14.1-65.7-22.8-114.6-22.9c0,0,0,0,0,0h-0.2c0,0-0.1,0-0.1,0c0,0-0.1,0-0.1,0h-0.2c0,0,0,0,0,0
				c-48.8,0.1-92.6,8.8-114.5,22.8c-0.6,0-1.2,0.3-1.3,0.9l-8,32.8L52.2,139.2z M71.3,316.8l-13.5-11.8h238.5l-13.5,11.8H71.3z
				 M281.4,318.1L268,329.8h-90.5h-0.9H86.1l-13.4-11.7H281.4z M56.4,303.8l-9.9-8.7h130.2h0.9h130.2l-9.9,8.7H56.4z M132.3,179.2
				c9.8,0,18.3-5.1,23.2-12.8l-2.4,20.1l-31.3-1.5c-12.3-1.6-22.5-9.7-26.7-21.4l-3.6-10.5H105C105.6,167.6,117.6,179.2,132.3,179.2
				z M107.5,153.1H157c0,0,0,0.1,0,0.1l-0.5,3.8c-2.3,11.3-12.3,19.8-24.3,19.8C119,176.7,108.1,166.2,107.5,153.1z M159,157.4
				c0.3-1.4,0.5-2.8,0.5-4.3h17.5h0h17.5c0.1,1.5,0.2,2.9,0.5,4.3l8.4,70.4h-26.4h0h-26.4L159,157.4z M221.9,176.7
				c-12,0-22-8.5-24.3-19.8l-0.5-3.8c0,0,0-0.1,0-0.1h49.5C246,166.2,235.2,176.7,221.9,176.7z M249.2,153.1h13.5l-3.8,10.5
				c-4.2,11.6-14.4,19.8-26.6,21.4l-31.1,1.5l-2.4-20.1c4.8,7.7,13.4,12.8,23.2,12.8C236.6,179.2,248.6,167.6,249.2,153.1z
				 M203.2,203.9l7.7,7.5l3.1,16.4h-7.9L203.2,203.9z M148.1,227.8h-7.9l3.1-16.4l7.7-7.5L148.1,227.8z M149.2,230.3h27.9h0H205
				h10.1l30.3,26.2c0.2,0.2,0.5,0.3,0.8,0.3h26.7l6.1,35.6h-42.7l-31.2-24.8c-0.2-0.2-0.5-0.3-0.8-0.3h-27.1c-0.1,0-0.1,0-0.2,0
				c-0.1,0-0.1,0-0.2,0h-27.1c-0.3,0-0.6,0.1-0.8,0.3l-31.2,24.8H75.1l6.1-35.6h26.7c0.3,0,0.6-0.1,0.8-0.3l30.3-26.2H149.2z
				 M211.3,284.5c-0.5-0.4-1.3-0.3-1.8,0.2l-6.3,7.9h-25.7h-0.9h-25.7l-6.3-7.9c-0.4-0.5-1.2-0.6-1.8-0.2c-0.5,0.4-0.6,1.2-0.2,1.8
				l5.1,6.4h-26.1l28.6-22.7h26.7c0.1,0,0.1,0,0.2,0c0.1,0,0.1,0,0.2,0h26.7l28.6,22.7h-26.1l5.1-6.4
				C212,285.7,211.9,284.9,211.3,284.5z M281.6,292.6l-6.4-37.2c-0.1-0.6-0.6-1-1.2-1h-27.3l-30-25.9l-3.3-17.8
				c0-0.3-0.2-0.5-0.4-0.7l-10.2-9.9c0,0,0,0,0,0l-1.3-11l31.1-1.5c13.2-1.7,24.2-10.5,28.7-23l4.1-11.4h8.7c0.7,0,1.3-0.6,1.3-1.3
				s-0.6-1.3-1.3-1.3h-96.9h0H80.1c-0.7,0-1.3,0.6-1.3,1.3s0.6,1.3,1.3,1.3h8.7l3.9,11.4c4.5,12.5,15.5,21.3,28.8,23l31.2,1.5
				l-1.3,11c0,0,0,0,0,0l-10.2,9.9c-0.2,0.2-0.3,0.4-0.4,0.7l-3.3,17.8l-30,25.9H80.1c-0.6,0-1.1,0.4-1.2,1l-6.4,37.2H44.7
				l13.5-63.9L81,107.9h74.7l20.6,12.5c0.2,0.2,0.5,0.2,0.7,0.2c0,0,0,0,0,0c0,0,0,0,0,0c0.3,0,0.5-0.1,0.7-0.2l20.6-12.5h74.7
				l36.4,184.7H281.6z M84.3,331.5L80.6,352l-45.5-53.8l7.7-2.9L84.3,331.5z M86.7,332.3h89.9h0.9h89.9l3.6,20.4H83L86.7,332.3z
				 M269.9,331.5l41.4-36.2l7,2.7l-45,53.2L269.9,331.5z M312.1,292.9l-36.7-186.6c0-0.1,0-0.1-0.1-0.2c0,0,0-0.1,0-0.1
				c-0.1-0.1-0.1-0.2-0.2-0.3c0,0,0,0,0,0c0,0,0,0,0,0l-8.7-8.5c4.1,1.3,7.9,2.7,11.5,4.1c0,0,0,0.1,0,0.1l40.2,193.8L312.1,292.9z
				 M271.1,105.3h-73c-0.2,0-0.5,0.1-0.7,0.2l-20.4,12.3l-20.4-12.3c-0.2-0.1-0.4-0.2-0.7-0.2H83l9.8-9.6c0,0,0.1-0.1,0.1-0.1
				c22.9-6.5,52.8-10.2,84.2-10.3c31.4,0,61.3,3.8,84.2,10.3c0,0,0.1,0.1,0.1,0.1L271.1,105.3z M79.1,105.7
				C79.1,105.7,79.1,105.7,79.1,105.7C79.1,105.7,79.1,105.7,79.1,105.7c-0.1,0.1-0.2,0.2-0.3,0.4c0,0,0,0.1,0,0.1
				c0,0.1,0,0.1-0.1,0.2L55.7,228.2L42,292.9l-7,2.6l40.3-193.8c3.8-1.6,8-3.2,12.5-4.6L79.1,105.7z M33.6,296.1l-10,3.8l45.2-195.1
				c1.6-0.8,3.2-1.6,5-2.4L33.6,296.1z M33.8,298.7l46.5,55l-4.6,26.1l-51.7-77.3L33.8,298.7z M82.8,354h188.4c0,0,0,0,0.1,0
				l4.6,25.8H78.2L82.8,354z M273.7,352.7l45.9-54.3l9.9,3.7l-51.2,76.4L273.7,352.7z M319.5,295.7l-40.2-193.8
				c1.7,0.7,3.4,1.5,5,2.3l45.3,195.3L319.5,295.7z M2.5,191.8c0-20.7,16.8-37.5,37.5-37.5c3,0,6,0.4,9,1.1l-17.9,72.8
				C14.5,224.2,2.5,209.1,2.5,191.8z M33.2,230.5c0.1-0.1,0.2-0.3,0.2-0.4c0-0.1,0-0.2,0-0.4l29.8-121.6c0,0,0,0,0,0
				c1.3-0.9,2.7-1.7,4.2-2.5L22.2,300.4l-6.8,2.6L33.2,230.5z M72.6,396.9l-57.1-91.3l7.2-2.7l52.2,77.9c0.1,0.2,0.3,0.3,0.5,0.3h0
				L72.6,396.9z M177.2,399.1h-0.3H74.8l3.2-18h198.2l3.2,18H177.2z M281.5,396.9l-2.9-16.5l52.1-77.8l8,3L281.5,396.9z M338.7,303
				l-7.9-3l-45.2-195c1.9,1,3.7,2,5.3,3.1L338.7,303z M323,228.3l-17.9-72.8c3-0.8,6.1-1.1,9.2-1.1c20.7,0,37.5,16.8,37.5,37.5
				C351.9,209.2,339.8,224.3,323,228.3z"/>
			<path class="st4" d="M261,113.8l-68.1,9.8c-0.3,0-0.6,0.2-0.8,0.5c-0.2,0.3-0.3,0.6-0.2,0.9l2.7,17.8c0.1,0.6,0.6,1.1,1.2,1.1
				c0,0,0.1,0,0.1,0l68.6-6.9c0.3,0,0.7-0.2,0.9-0.5c0.2-0.3,0.3-0.6,0.2-1l-3.2-20.8C262.3,114.1,261.7,113.7,261,113.8z
				 M196.9,141.3l-2.4-15.4l65.6-9.5l2.8,18.3L196.9,141.3z"/>
		</g>
	</g>
	<text transform="matrix(1 0 0 1 292.3825 71.554)" class="st0 st5 st6">TM</text>
</g>
<g>
	<path class="st2" d="M495,184H391.2V40h101.4c13.6,0,30.4,9.4,30.4,28.2v88.2C523,173,509.6,184,495,184z M485.8,96.2
		c0-20.6-10-28-24.6-28h-22.4v87.6h22.4c14.6,0,24.6-8.2,24.6-28V96.2z"/>
	<path class="st2" d="M646.9,184h-67.6c-14.4,0-27.6-12.4-27.6-27.6V40h45.2v98c0,11.8,11,13.6,13.2,13.6c9.6,0,13.6-7.8,13.6-13.6
		V40h51.2v116.8C674.9,173.2,661.5,184,646.9,184z"/>
	<path class="st2" d="M786.1,91v93h-41.8V91h-48.2V40h140v51H786.1z"/>
	<path class="st2" d="M962,184h-75.6c-14.4,0-28-12.4-28-27.6V68c0-15.4,11.2-28,28-28h75c11.4,0,28.6,9,28.6,28v25h-39.6
		c-2.8-17.4-14.6-24-26-24c-16.6,0-30,19.2-30,42.8c0,23.6,13.4,42.6,30,42.6c10.4,0,20.4-7.4,24.8-18.6H990v20.6
		C990,172.8,976.6,184,962,184z"/>
	<path class="st2" d="M1105.4,184v-55h-40.2v55h-47.6V40h47.6v43.2h40.2V40h37.6v144H1105.4z"/>
</g>
<path class="st0" d="M492.2,356.4h-71.7c-15.3,0-29.3-13.1-29.3-29.3V203.8h47.9v103.9c0,12.5,11.7,14.4,14,14.4
	c10.2,0,14.4-8.3,14.4-14.4V203.8h54.3v123.8C521.8,344.9,507.6,356.4,492.2,356.4z"/>
<path class="st0" d="M634.6,356.4l-32.2-99.2v99.2h-50.9V203.8h56.8l32.2,71.2v-71.2h35.1v152.6H634.6z"/>
<path class="st0" d="M811,356.4h-80.1c-15.3,0-29.7-13.1-29.7-29.3v-93.7c0-16.3,11.9-29.7,29.7-29.7h79.5
	c12.1,0,30.3,9.5,30.3,29.7v26.5h-42c-3-18.4-15.5-25.4-27.6-25.4c-17.6,0-31.8,20.4-31.8,45.4s14.2,45.2,31.8,45.2
	c11,0,21.6-7.8,26.3-19.7h43.2v21.8C840.7,344.5,826.5,356.4,811,356.4z"/>
<path class="st0" d="M861.6,356.4V203.8h50v105.6h77.5v47.1H861.6z"/>
<polyline class="st0" points="1143.4,239.5 1066.6,239.5 1066.6,260 1102.7,260 1102.7,295.6 1066.6,295.6 1066.6,314.8 
	1142.9,314.8 1142.9,356.4 1018.1,356.4 1018.1,203.8 1143.4,203.8 "/>
</svg>
